<svg data-v-423bf9ae="" xmlns="http://www.w3.org/2000/svg" viewBox="0 0 380 90" class="iconLeftSlogan"><!----><!----><!----><g data-v-423bf9ae="" id="1096938d-9c0d-454a-b404-82177e13b630" fill="#ffffff" transform="matrix(4.2857139937731885,0,0,4.2857139937731885,109.62341047780782,-11.95714235597734)"><path d="M11.56 12.77Q11.59 12.77 11.59 12.85Q11.59 12.94 11.56 12.94L11.56 12.94Q11.10 12.94 10.82 12.92L10.82 12.92L9.81 12.91L8.83 12.92Q8.58 12.94 8.12 12.94L8.12 12.94Q8.09 12.94 8.09 12.85Q8.09 12.77 8.12 12.77L8.12 12.77Q8.74 12.77 8.95 12.63Q9.16 12.49 9.16 12.04L9.16 12.04L9.14 11.80L8.86 5.87L5.88 12.84Q5.85 12.89 5.77 12.89L5.77 12.89Q5.70 12.89 5.64 12.84L5.64 12.84L2.14 5.92L2.02 11.24Q2.00 11.98 2.30 12.38Q2.60 12.77 3.21 12.77L3.21 12.77Q3.25 12.77 3.25 12.85Q3.25 12.94 3.21 12.94L3.21 12.94Q2.83 12.94 2.62 12.92L2.62 12.92L1.85 12.91L1.02 12.92Q0.81 12.94 0.43 12.94L0.43 12.94Q0.39 12.94 0.39 12.85Q0.39 12.77 0.43 12.77L0.43 12.77Q1.01 12.77 1.32 12.38Q1.64 11.98 1.65 11.24L1.65 11.24L1.78 5.22Q1.53 4.77 1.23 4.56Q0.92 4.35 0.53 4.35L0.53 4.35Q0.49 4.35 0.49 4.27Q0.49 4.19 0.53 4.19L0.53 4.19L1.13 4.20Q1.32 4.21 1.61 4.21L1.61 4.21L2.27 4.20Q2.38 4.19 2.55 4.19L2.55 4.19Q2.73 4.19 2.84 4.32Q2.95 4.45 3.19 4.91L3.19 4.91L6.27 10.92L9.06 4.54Q9.14 4.34 9.24 4.26Q9.34 4.19 9.48 4.19L9.48 4.19Q9.58 4.19 9.73 4.20Q9.88 4.21 10.11 4.21L10.11 4.21L10.86 4.20Q11.05 4.19 11.41 4.19L11.41 4.19Q11.44 4.19 11.44 4.27Q11.44 4.35 11.41 4.35L11.41 4.35Q10.74 4.35 10.44 4.60Q10.14 4.84 10.16 5.40L10.16 5.40L10.49 11.80Q10.51 12.24 10.59 12.43Q10.67 12.63 10.88 12.70Q11.09 12.77 11.56 12.77L11.56 12.77ZM17.72 12.18L17.75 12.18Q17.81 12.18 17.82 12.24Q17.84 12.31 17.78 12.33L17.78 12.33L16.34 13.02Q16.28 13.05 16.21 13.05L16.21 13.05Q16.02 13.05 15.83 12.82Q15.65 12.60 15.58 12.22L15.58 12.22L14.85 12.61Q14.04 13.03 13.47 13.03L13.47 13.03Q13.02 13.03 12.78 12.80Q12.53 12.57 12.53 12.17L12.53 12.17Q12.53 11.73 12.84 11.52Q13.15 11.30 14.01 11.00L14.01 11.00L15.54 10.49L15.54 9.37Q15.54 8.51 15.34 8.11Q15.15 7.71 14.76 7.71L14.76 7.71Q14 7.71 13.89 8.82L13.89 8.82Q13.82 9.52 13.17 9.52L13.17 9.52Q12.57 9.52 12.57 9.00L12.57 9.00Q12.57 8.64 13.03 8.27Q13.48 7.90 14.13 7.65Q14.77 7.41 15.27 7.41L15.27 7.41Q15.90 7.41 16.29 7.79Q16.67 8.18 16.67 8.95L16.67 8.95L16.67 11.42Q16.67 11.86 16.81 12.08Q16.95 12.31 17.22 12.31L17.22 12.31Q17.43 12.31 17.72 12.18L17.72 12.18ZM15.13 12.22L15.55 12.00Q15.54 11.94 15.54 11.79L15.54 11.79L15.54 10.71L14.55 11.07Q14.18 11.21 14.03 11.38Q13.87 11.54 13.87 11.77L13.87 11.77Q13.87 12.07 14.04 12.24Q14.21 12.40 14.48 12.40L14.48 12.40Q14.77 12.40 15.13 12.22L15.13 12.22ZM24.58 12.77Q24.64 12.77 24.64 12.85Q24.64 12.94 24.58 12.94L24.58 12.94Q24.23 12.94 24.02 12.92L24.02 12.92L23.23 12.91L22.43 12.92Q22.22 12.94 21.87 12.94L21.87 12.94Q21.83 12.94 21.83 12.85Q21.83 12.77 21.87 12.77L21.87 12.77Q22.33 12.77 22.50 12.56Q22.67 12.36 22.67 11.80L22.67 11.80L22.67 9.72Q22.67 8.18 21.46 8.18L21.46 8.18Q21.08 8.18 20.70 8.35Q20.31 8.53 20.02 8.82L20.02 8.82L20.02 11.80Q20.02 12.38 20.18 12.57Q20.34 12.77 20.82 12.77L20.82 12.77Q20.87 12.77 20.87 12.85Q20.87 12.94 20.82 12.94L20.82 12.94Q20.47 12.94 20.26 12.92L20.26 12.92L19.46 12.91L18.66 12.92Q18.45 12.94 18.10 12.94L18.10 12.94Q18.06 12.94 18.06 12.85Q18.06 12.77 18.10 12.77L18.10 12.77Q18.56 12.77 18.73 12.56Q18.90 12.36 18.90 11.80L18.90 11.80L18.90 4.65Q18.90 4.16 18.80 3.94Q18.70 3.72 18.48 3.72L18.48 3.72Q18.27 3.72 17.91 3.89L17.91 3.89L17.89 3.89Q17.85 3.89 17.82 3.81Q17.78 3.74 17.82 3.72L17.82 3.72L19.77 2.80L19.84 2.79Q19.89 2.79 19.96 2.84Q20.02 2.90 20.02 2.94L20.02 2.94L20.02 8.54Q21.03 7.38 22.16 7.38L22.16 7.38Q22.93 7.38 23.36 7.84Q23.79 8.30 23.79 9.10L23.79 9.10L23.79 11.80Q23.79 12.38 23.95 12.57Q24.11 12.77 24.58 12.77L24.58 12.77ZM30.69 12.18L30.72 12.18Q30.77 12.18 30.79 12.24Q30.80 12.31 30.74 12.33L30.74 12.33L29.30 13.02Q29.25 13.05 29.18 13.05L29.18 13.05Q28.98 13.05 28.80 12.82Q28.62 12.60 28.55 12.22L28.55 12.22L27.82 12.61Q27.01 13.03 26.43 13.03L26.43 13.03Q25.98 13.03 25.74 12.80Q25.49 12.57 25.49 12.17L25.49 12.17Q25.49 11.73 25.80 11.52Q26.11 11.30 26.98 11.00L26.98 11.00L28.50 10.49L28.50 9.37Q28.50 8.51 28.31 8.11Q28.11 7.71 27.72 7.71L27.72 7.71Q26.96 7.71 26.85 8.82L26.85 8.82Q26.78 9.52 26.14 9.52L26.14 9.52Q25.54 9.52 25.54 9.00L25.54 9.00Q25.54 8.64 25.99 8.27Q26.45 7.90 27.09 7.65Q27.73 7.41 28.24 7.41L28.24 7.41Q28.87 7.41 29.25 7.79Q29.64 8.18 29.64 8.95L29.64 8.95L29.64 11.42Q29.64 11.86 29.78 12.08Q29.92 12.31 30.18 12.31L30.18 12.31Q30.39 12.31 30.69 12.18L30.69 12.18ZM28.10 12.22L28.52 12.00Q28.50 11.94 28.50 11.79L28.50 11.79L28.50 10.71L27.51 11.07Q27.15 11.21 26.99 11.38Q26.84 11.54 26.84 11.77L26.84 11.77Q26.84 12.07 27.01 12.24Q27.17 12.40 27.44 12.40L27.44 12.40Q27.73 12.40 28.10 12.22L28.10 12.22ZM36.82 7.53Q36.85 7.53 36.85 7.62Q36.85 7.70 36.82 7.70L36.82 7.70Q36.43 7.70 36.14 7.98Q35.85 8.26 35.59 8.88L35.59 8.88L33.85 12.94Q33.82 13.01 33.71 13.01L33.71 13.01Q33.59 13.01 33.54 12.94L33.54 12.94L31.47 8.69Q31.18 8.08 30.97 7.89Q30.76 7.70 30.45 7.70L30.45 7.70Q30.41 7.70 30.41 7.62Q30.41 7.53 30.45 7.53L30.45 7.53Q30.70 7.53 30.86 7.55L30.86 7.55L31.67 7.56L32.70 7.55Q32.93 7.53 33.32 7.53L33.32 7.53Q33.36 7.53 33.36 7.62Q33.36 7.70 33.32 7.70L33.32 7.70Q32.49 7.70 32.49 8.02L32.49 8.02Q32.49 8.11 32.56 8.25L32.56 8.25L34.17 11.41L35.24 8.85Q35.34 8.61 35.34 8.39L35.34 8.39Q35.34 8.05 35.09 7.88Q34.85 7.70 34.37 7.70L34.37 7.70Q34.34 7.70 34.34 7.62Q34.34 7.53 34.37 7.53L34.37 7.53Q34.75 7.53 34.94 7.55L34.94 7.55L35.78 7.56L36.33 7.55Q36.48 7.53 36.82 7.53L36.82 7.53ZM37.32 12.94Q37.28 12.94 37.28 12.85Q37.28 12.77 37.32 12.77L37.32 12.77Q37.80 12.77 37.95 12.57Q38.11 12.38 38.11 11.80L38.11 11.80L38.11 9.25Q38.11 8.78 38.01 8.56Q37.91 8.34 37.67 8.34L37.67 8.34Q37.46 8.34 37.13 8.51L37.13 8.51L37.11 8.51Q37.06 8.51 37.03 8.44Q37.00 8.37 37.04 8.34L37.04 8.34L39.06 7.41L39.10 7.39Q39.16 7.39 39.22 7.46Q39.28 7.52 39.28 7.56L39.28 7.56L39.28 7.85Q39.26 8.44 39.26 9.24L39.26 9.24L39.26 11.80Q39.26 12.38 39.42 12.57Q39.58 12.77 40.05 12.77L40.05 12.77Q40.10 12.77 40.10 12.85Q40.10 12.94 40.05 12.94L40.05 12.94Q39.70 12.94 39.49 12.92L39.49 12.92L38.68 12.91L37.87 12.92Q37.67 12.94 37.32 12.94L37.32 12.94ZM38.61 5.92Q38.25 5.92 38.05 5.73Q37.84 5.53 37.84 5.17L37.84 5.17Q37.84 4.82 38.05 4.63Q38.25 4.44 38.61 4.44L38.61 4.44Q38.96 4.44 39.16 4.63Q39.35 4.82 39.35 5.17L39.35 5.17Q39.35 5.53 39.16 5.73Q38.98 5.92 38.61 5.92L38.61 5.92ZM44.51 7.39Q44.83 7.39 45.12 7.60Q45.42 7.81 45.42 8.11L45.42 8.11Q45.42 8.37 45.26 8.54Q45.09 8.71 44.81 8.71L44.81 8.71Q44.63 8.71 44.51 8.63Q44.39 8.55 44.27 8.41L44.27 8.41Q44.14 8.29 44.04 8.22Q43.95 8.16 43.81 8.16L43.81 8.16Q43.65 8.16 43.48 8.28Q43.30 8.40 42.94 8.78L42.94 8.78L42.94 11.80Q42.94 12.19 43.05 12.40Q43.16 12.60 43.43 12.68Q43.69 12.77 44.21 12.77L44.21 12.77Q44.27 12.77 44.27 12.85Q44.27 12.94 44.21 12.94L44.21 12.94Q43.75 12.94 43.47 12.92L43.47 12.92L42.36 12.91L41.55 12.92Q41.36 12.94 41.01 12.94L41.01 12.94Q40.96 12.94 40.96 12.85Q40.96 12.77 41.01 12.77L41.01 12.77Q41.48 12.77 41.64 12.57Q41.79 12.38 41.79 11.80L41.79 11.80L41.79 9.13Q41.79 8.68 41.69 8.47Q41.58 8.26 41.34 8.26L41.34 8.26Q41.13 8.26 40.64 8.47L40.64 8.47L40.63 8.47Q40.57 8.47 40.54 8.40Q40.52 8.33 40.56 8.32L40.56 8.32L42.39 7.42Q42.48 7.39 42.49 7.39L42.49 7.39Q42.63 7.39 42.77 7.69Q42.91 7.99 42.94 8.48L42.94 8.48Q43.48 7.87 43.85 7.63Q44.21 7.39 44.51 7.39L44.51 7.39ZM48.08 15.93Q47.99 16.17 47.78 16.27L47.78 16.27L46.79 16.79L46.77 16.79Q46.73 16.79 46.70 16.75Q46.68 16.72 46.69 16.69L46.69 16.69L50.36 8.68Q50.41 8.58 50.30 8.58L50.30 8.58Q48.29 8.58 47.50 8.64Q46.72 8.69 46.46 8.88Q46.20 9.06 46.06 9.53L46.06 9.53Q46.03 9.56 45.99 9.56L45.99 9.56Q45.95 9.56 45.91 9.54Q45.88 9.52 45.89 9.49L45.89 9.49L46.48 7.15Q46.49 7.13 46.58 7.13Q46.66 7.14 46.65 7.17L46.65 7.17Q46.63 7.22 46.63 7.31L46.63 7.31Q46.63 7.45 46.77 7.49Q46.90 7.53 47.31 7.53L47.31 7.53L51.02 7.53Q51.07 7.53 51.12 7.59Q51.17 7.66 51.14 7.71L51.14 7.71L48.08 15.93ZM57.53 12.28Q57.58 12.28 57.58 12.52L57.58 12.52Q57.58 12.66 57.55 12.79Q57.53 12.92 57.50 12.92L57.50 12.92L57.16 12.91Q56.71 12.88 56.49 12.88L56.49 12.88L56.49 14.91Q56.49 15.05 56.38 15.11L56.38 15.11L55.45 15.57Q55.37 15.60 55.37 15.60L55.37 15.60Q55.33 15.60 55.33 15.48L55.33 15.48L55.33 12.84Q54.47 12.82 52.12 12.82L52.12 12.82Q52.05 12.82 52.01 12.77Q51.97 12.71 52.02 12.66L52.02 12.66L56.28 7.39Q56.31 7.36 56.36 7.36L56.36 7.36Q56.41 7.36 56.45 7.38Q56.49 7.41 56.49 7.45L56.49 7.45L56.49 12.32L57.53 12.28ZM52.92 12.36Q54.66 12.36 55.33 12.35L55.33 12.35L55.33 9.27L52.85 12.26Q52.77 12.36 52.92 12.36L52.92 12.36ZM59.25 10.19Q61.19 10.21 62.11 10.91Q63.03 11.61 63.03 12.81L63.03 12.81Q63.03 13.61 62.62 14.26Q62.20 14.91 61.32 15.52Q60.44 16.13 58.98 16.79L58.98 16.79L58.97 16.79Q58.91 16.79 58.88 16.72Q58.84 16.66 58.90 16.63L58.90 16.63Q60.48 15.78 61.12 14.91Q61.75 14.04 61.75 13.05L61.75 13.05Q61.75 11.89 61.04 11.24Q60.33 10.60 58.98 10.60L58.98 10.60Q58.91 10.60 58.87 10.55Q58.83 10.50 58.84 10.43L58.84 10.43L59.29 7.94Q59.30 7.84 59.33 7.82Q59.36 7.80 59.47 7.78L59.47 7.78Q61.24 7.57 61.84 7.49Q62.44 7.41 62.62 7.31Q62.79 7.22 62.86 7.01L62.86 7.01Q62.87 6.97 62.95 6.98Q63.03 6.99 63.01 7.04L63.01 7.04L62.73 8.41Q62.69 8.58 62.62 8.62Q62.54 8.67 62.34 8.67L62.34 8.67L59.68 8.72Q59.50 8.72 59.47 8.93L59.47 8.93L59.25 10.19Z"></path></g><!----><g data-v-423bf9ae="" id="88a45295-e6ff-4a49-82b6-9819038b5335" transform="matrix(2.852072528086791,0,0,2.852072528086791,0.3618419448213217,-0.41116010653409063)" stroke="none" fill="#07A0B4"><path d="M16 23.787L8.102 16 16 8.213 23.898 16 16 23.787zM9.525 16L16 22.383 22.475 16 16 9.617 9.525 16z"></path><path d="M15.915 31.778L-.005 16.084 16.085.222l15.92 15.694-16.09 15.862zM1.419 16.084l14.496 14.29 14.666-14.458-14.496-14.29L1.419 16.084z"></path><path d="M15.5.924h1v30.152h-1z"></path></g><!----><g data-v-423bf9ae="" id="3a79c613-280f-44b9-b88a-a0139da6fbbb" fill="#ffffff" transform="matrix(0.7114981445548729,0,0,0.7114981445548729,110.79678653470437,57.30342185740165)"><path d="M7.83 3.92L7.48 3.92L1.89 3.92L0.70 3.92L0.70 4.19C0.70 4.34 0.80 4.42 0.98 4.44L1.12 4.44C1.19 4.44 1.29 4.45 1.43 4.45C1.57 4.45 1.72 4.47 1.89 4.47L1.89 13.26C1.72 13.26 1.57 13.27 1.43 13.27C1.29 13.27 1.19 13.29 1.12 13.29L0.98 13.29C0.80 13.30 0.70 13.38 0.70 13.54L0.70 13.82L1.89 13.82L2.60 13.82L3.78 13.82L3.78 13.54C3.78 13.38 3.70 13.30 3.51 13.29L3.37 13.29C3.30 13.29 3.21 13.27 3.07 13.27C2.93 13.27 2.77 13.26 2.60 13.26L2.60 9.27L6.30 9.27L6.30 8.67L2.60 8.67L2.60 4.51L7.21 4.51C7.24 5.18 7.27 5.56 7.27 5.63C7.28 5.85 7.38 5.96 7.57 5.96L7.91 5.96L7.91 3.92ZM24.35 3.92L23.63 3.92L22.27 3.92L22.27 4.19C22.27 4.34 22.37 4.42 22.55 4.44L22.72 4.44C22.82 4.44 22.96 4.45 23.13 4.45C23.30 4.45 23.46 4.47 23.63 4.47L23.63 10.04C23.63 10.50 23.56 10.92 23.42 11.33C23.28 11.73 23.09 12.08 22.82 12.38C22.55 12.67 22.25 12.89 21.87 13.06C21.49 13.23 21.07 13.31 20.59 13.31C20.12 13.31 19.68 13.23 19.31 13.06C18.93 12.89 18.61 12.66 18.35 12.36C18.09 12.07 17.91 11.72 17.77 11.33C17.63 10.93 17.56 10.50 17.56 10.04L17.56 4.47C17.72 4.47 17.89 4.45 18.06 4.45C18.23 4.45 18.37 4.44 18.47 4.44L18.63 4.44C18.82 4.42 18.91 4.34 18.91 4.19L18.91 3.92L17.56 3.92L16.84 3.92L15.67 3.92L15.67 4.19C15.67 4.34 15.75 4.42 15.93 4.44L16.07 4.44C16.14 4.44 16.24 4.45 16.38 4.45C16.52 4.45 16.67 4.47 16.84 4.47L16.84 10.04C16.84 10.58 16.93 11.09 17.09 11.56C17.26 12.04 17.51 12.46 17.84 12.81C18.16 13.16 18.56 13.44 19.03 13.64C19.49 13.83 20.02 13.93 20.59 13.93C21.17 13.93 21.69 13.83 22.15 13.64C22.61 13.44 23.02 13.16 23.34 12.81C23.66 12.46 23.91 12.04 24.08 11.56C24.25 11.09 24.35 10.58 24.35 10.04L24.35 4.47C24.51 4.47 24.65 4.45 24.79 4.45C24.93 4.45 25.05 4.44 25.12 4.44L25.24 4.44C25.42 4.42 25.52 4.34 25.52 4.19L25.52 3.92ZM39.91 11.97C39.72 11.97 39.63 12.08 39.62 12.31C39.62 12.32 39.62 12.38 39.61 12.43C39.59 12.49 39.59 12.59 39.58 12.71C39.56 12.84 39.55 13.01 39.54 13.20L35.45 13.20L35.45 4.47C35.62 4.47 35.76 4.45 35.90 4.45C36.04 4.45 36.15 4.44 36.22 4.44L36.34 4.44C36.53 4.42 36.62 4.34 36.62 4.19L36.62 3.92L35.45 3.92L34.73 3.92L33.54 3.92L33.54 4.19C33.54 4.34 33.64 4.42 33.82 4.44L33.96 4.44C34.03 4.44 34.13 4.45 34.27 4.45C34.41 4.45 34.57 4.47 34.73 4.47L34.73 13.26C34.57 13.26 34.41 13.27 34.27 13.27C34.13 13.27 34.03 13.29 33.96 13.29L33.82 13.29C33.64 13.30 33.54 13.38 33.54 13.54L33.54 13.82L34.73 13.82L40.01 13.82L40.14 13.82L40.26 13.82L40.26 13.55L40.26 12.99L40.26 11.97L39.98 11.97ZM55.06 11.97C54.87 11.97 54.78 12.08 54.77 12.31C54.77 12.32 54.77 12.38 54.75 12.43C54.74 12.49 54.74 12.59 54.73 12.71C54.71 12.84 54.70 13.01 54.68 13.20L50.60 13.20L50.60 4.47C50.76 4.47 50.90 4.45 51.04 4.45C51.18 4.45 51.30 4.44 51.37 4.44L51.49 4.44C51.67 4.42 51.77 4.34 51.77 4.19L51.77 3.92L50.60 3.92L49.88 3.92L48.69 3.92L48.69 4.19C48.69 4.34 48.79 4.42 48.97 4.44L49.11 4.44C49.18 4.44 49.28 4.45 49.42 4.45C49.56 4.45 49.71 4.47 49.88 4.47L49.88 13.26C49.71 13.26 49.56 13.27 49.42 13.27C49.28 13.27 49.18 13.29 49.11 13.29L48.97 13.29C48.79 13.30 48.69 13.38 48.69 13.54L48.69 13.82L49.88 13.82L55.16 13.82L55.29 13.82L55.41 13.82L55.41 13.55L55.41 12.99L55.41 11.97L55.13 11.97ZM79.94 9.91C79.80 9.65 79.60 9.39 79.37 9.21C79.13 9.03 78.88 8.88 78.58 8.75C78.29 8.62 77.97 8.51 77.66 8.41C77.35 8.32 77.04 8.20 76.75 8.11C76.45 7.99 76.19 7.87 75.95 7.71C75.71 7.56 75.53 7.38 75.39 7.15C75.25 6.93 75.17 6.65 75.17 6.31C75.17 6.06 75.22 5.82 75.32 5.59C75.42 5.35 75.56 5.15 75.74 4.97C75.92 4.79 76.15 4.65 76.43 4.55C76.71 4.45 77.01 4.40 77.38 4.40C78.05 4.40 78.67 4.51 79.23 4.75C79.27 5.54 79.30 5.99 79.30 6.06C79.31 6.29 79.39 6.41 79.59 6.41L79.93 6.41L79.93 4.38C79.04 4.00 78.20 3.81 77.38 3.81C76.92 3.81 76.51 3.88 76.15 4.02C75.78 4.16 75.49 4.34 75.25 4.58C75.01 4.82 74.82 5.08 74.69 5.39C74.56 5.70 74.51 6.02 74.51 6.36C74.51 6.78 74.58 7.14 74.72 7.42C74.86 7.70 75.05 7.92 75.29 8.12C75.53 8.32 75.78 8.46 76.08 8.58C76.37 8.71 76.69 8.82 77 8.92C77.31 9.02 77.60 9.11 77.91 9.21C78.20 9.31 78.47 9.45 78.71 9.60C78.95 9.76 79.13 9.94 79.27 10.16C79.41 10.39 79.48 10.68 79.48 11.03C79.48 11.35 79.42 11.66 79.31 11.94C79.20 12.22 79.04 12.46 78.83 12.67C78.62 12.88 78.36 13.05 78.05 13.16C77.74 13.29 77.39 13.33 77 13.33C76.22 13.33 75.56 13.20 75.03 12.95C75.01 12.75 75.01 12.54 75.00 12.32C74.98 12.10 74.98 11.91 74.97 11.76C74.96 11.61 74.96 11.52 74.96 11.51C74.94 11.28 74.84 11.17 74.65 11.17L74.31 11.17L74.31 13.02L74.31 13.20L74.31 13.38C75.17 13.75 76.05 13.93 76.97 13.93C77.48 13.93 77.92 13.85 78.32 13.69C78.71 13.54 79.04 13.31 79.31 13.05C79.58 12.78 79.80 12.46 79.94 12.10C80.08 11.73 80.15 11.34 80.15 10.92C80.15 10.51 80.08 10.18 79.94 9.91ZM95.93 3.92L95.73 3.92L88.44 3.92L88.23 3.92L88.13 3.92L88.13 5.96L88.48 5.96C88.68 5.96 88.76 5.85 88.77 5.63C88.77 5.53 88.80 5.17 88.83 4.52L91.73 4.52L91.73 13.26C91.56 13.26 91.42 13.27 91.28 13.27C91.14 13.27 91.03 13.29 90.96 13.29L90.83 13.29C90.65 13.30 90.55 13.38 90.55 13.54L90.55 13.82L91.73 13.82L92.44 13.82L93.63 13.82L93.63 13.54C93.63 13.38 93.53 13.30 93.35 13.29L93.21 13.29C93.14 13.29 93.04 13.27 92.90 13.27C92.76 13.27 92.61 13.26 92.44 13.26L92.44 4.52L95.33 4.52C95.37 5.24 95.38 5.60 95.38 5.63C95.40 5.85 95.49 5.96 95.69 5.96L96.03 5.96L96.03 3.92ZM112.62 13.22L112.15 13.17L108.37 3.91L107.66 3.91L103.87 13.17L103.42 13.22C103.24 13.23 103.15 13.33 103.15 13.50L103.15 13.82L103.60 13.82L103.89 13.82L104.15 13.82L104.24 13.82L105.56 13.82L105.56 13.50C105.56 13.31 105.45 13.23 105.24 13.22C105.22 13.22 105.20 13.20 105.15 13.20C105.11 13.20 105.06 13.19 104.96 13.19C104.86 13.19 104.73 13.19 104.59 13.17L105.57 10.75L105.64 10.57L110.38 10.57L110.45 10.75L111.43 13.17C111.29 13.19 111.17 13.19 111.08 13.19C110.98 13.19 110.91 13.20 110.87 13.20C110.82 13.20 110.80 13.22 110.78 13.22C110.57 13.23 110.46 13.31 110.46 13.50L110.46 13.82L111.78 13.82L111.87 13.82L112.14 13.82L112.42 13.82L112.88 13.82L112.88 13.50C112.88 13.33 112.80 13.23 112.62 13.22ZM107.81 5.22C107.84 5.14 107.88 5.04 107.91 4.94C107.94 4.84 107.98 4.75 108.01 4.63C108.04 4.75 108.08 4.84 108.11 4.94C108.14 5.04 108.18 5.12 108.21 5.21L110.17 10.04L105.87 10.04ZM128.84 12.21C128.81 12.18 128.77 12.15 128.73 12.15C128.70 12.15 128.69 12.15 128.66 12.17C128.65 12.18 128.62 12.21 128.59 12.22C128.39 12.40 128.18 12.56 127.99 12.70C127.79 12.84 127.58 12.94 127.34 13.03C127.11 13.13 126.85 13.20 126.57 13.24C126.29 13.29 125.99 13.31 125.64 13.31C125.08 13.31 124.53 13.22 124.05 13.01C123.56 12.81 123.16 12.52 122.81 12.14C122.46 11.76 122.16 11.28 121.97 10.74C121.77 10.19 121.67 9.56 121.67 8.86C121.67 8.18 121.77 7.56 121.97 7.01C122.18 6.47 122.46 6.01 122.82 5.61C123.19 5.24 123.62 4.94 124.12 4.73C124.63 4.52 125.17 4.42 125.78 4.42C126.67 4.42 127.50 4.56 128.23 4.89C128.27 5.78 128.31 6.30 128.31 6.41C128.32 6.64 128.41 6.75 128.60 6.75L128.94 6.75L128.94 4.51C127.76 4.03 126.70 3.81 125.78 3.81C125.06 3.81 124.42 3.92 123.82 4.17C123.23 4.42 122.70 4.76 122.28 5.21C121.84 5.66 121.52 6.19 121.28 6.80C121.04 7.42 120.93 8.11 120.93 8.86C120.93 9.63 121.06 10.32 121.28 10.95C121.51 11.58 121.83 12.10 122.23 12.54C122.64 12.99 123.13 13.33 123.70 13.57C124.28 13.80 124.89 13.93 125.58 13.93C125.99 13.93 126.36 13.90 126.71 13.83C127.05 13.76 127.37 13.66 127.67 13.54C127.95 13.41 128.21 13.26 128.45 13.09C128.69 12.91 128.91 12.73 129.12 12.50ZM145.63 13.29L145.54 13.29L145.36 13.29C145.28 13.29 145.18 13.27 145.08 13.27L141.05 9.06C140.97 8.96 140.90 8.89 140.81 8.83C140.73 8.78 140.64 8.74 140.55 8.71C140.63 8.68 140.70 8.64 140.77 8.58C140.84 8.53 140.92 8.46 141.01 8.36L144.80 4.45L145.07 4.45C145.15 4.45 145.21 4.44 145.25 4.44L145.33 4.44C145.52 4.42 145.61 4.34 145.61 4.19L145.61 3.91L144.63 3.91L144.51 3.91L142.70 3.91L142.70 4.19C142.70 4.34 142.80 4.42 142.98 4.44L143.15 4.44C143.25 4.44 143.37 4.45 143.54 4.45L143.99 4.45L140.32 8.22C140.27 8.27 140.21 8.33 140.17 8.36C140.13 8.39 140.07 8.40 140.01 8.43C139.96 8.44 139.92 8.47 139.85 8.47C139.78 8.48 139.69 8.48 139.61 8.48L139.02 8.48L139.02 4.45C139.19 4.45 139.34 4.44 139.48 4.44C139.62 4.44 139.72 4.42 139.79 4.42L139.93 4.42C140.11 4.41 140.20 4.33 140.20 4.17L140.20 3.91L139.02 3.91L138.31 3.91L137.13 3.91L137.13 4.17C137.13 4.33 137.23 4.41 137.41 4.42L137.54 4.42C137.61 4.42 137.72 4.44 137.86 4.44C138.00 4.44 138.14 4.45 138.31 4.45L138.31 13.26C138.14 13.26 138.00 13.27 137.86 13.27C137.72 13.27 137.61 13.29 137.54 13.29L137.41 13.29C137.23 13.30 137.13 13.38 137.13 13.54L137.13 13.82L138.31 13.82L139.02 13.82L140.20 13.82L140.20 13.54C140.20 13.38 140.11 13.30 139.93 13.29L139.79 13.29C139.72 13.29 139.62 13.27 139.48 13.27C139.34 13.27 139.19 13.26 139.02 13.26L139.02 9.04L139.66 9.04C139.78 9.04 139.87 9.04 139.94 9.06C140.01 9.07 140.07 9.09 140.13 9.11C140.18 9.14 140.24 9.17 140.28 9.21C140.32 9.25 140.36 9.28 140.42 9.34L144.27 13.27C144.13 13.27 143.96 13.29 143.79 13.29L143.39 13.29L143.21 13.29C143.02 13.30 142.93 13.38 142.93 13.54L142.93 13.82L144.80 13.82L144.86 13.82L145.03 13.82L145.61 13.82L145.91 13.82L145.91 13.54C145.91 13.38 145.81 13.30 145.63 13.29ZM173.56 6.80C173.33 6.19 173.01 5.68 172.59 5.25C172.17 4.82 171.68 4.48 171.11 4.26C170.53 4.03 169.88 3.92 169.18 3.92L165.75 3.92L164.56 3.92L164.56 4.19C164.56 4.34 164.65 4.42 164.84 4.44L164.98 4.44C165.05 4.44 165.14 4.45 165.28 4.45C165.42 4.45 165.58 4.47 165.75 4.47L165.75 13.26C165.58 13.26 165.42 13.27 165.28 13.27C165.14 13.27 165.05 13.29 164.98 13.29L164.84 13.29C164.65 13.30 164.56 13.38 164.56 13.54L164.56 13.82L165.75 13.82L169.18 13.82C169.88 13.82 170.53 13.71 171.11 13.48C171.68 13.26 172.17 12.92 172.59 12.49C173.01 12.05 173.33 11.54 173.56 10.92C173.78 10.30 173.91 9.63 173.91 8.86C173.91 8.11 173.78 7.42 173.56 6.80ZM172.87 10.72C172.68 11.27 172.42 11.72 172.07 12.10C171.72 12.47 171.30 12.75 170.81 12.95C170.32 13.15 169.78 13.24 169.18 13.24L166.46 13.24L166.46 4.49L169.18 4.49C169.78 4.49 170.32 4.59 170.81 4.79C171.30 4.98 171.72 5.26 172.07 5.64C172.42 6.02 172.68 6.47 172.87 7.01C173.07 7.56 173.17 8.18 173.17 8.86C173.17 9.56 173.07 10.18 172.87 10.72ZM183.39 3.92L182.20 3.92L182.20 4.19C182.20 4.34 182.29 4.42 182.48 4.44L182.62 4.44C182.69 4.44 182.78 4.45 182.92 4.45C183.06 4.45 183.22 4.47 183.39 4.47L183.39 13.26C183.22 13.26 183.06 13.27 182.92 13.27C182.78 13.27 182.69 13.29 182.62 13.29L182.48 13.29C182.29 13.30 182.21 13.38 182.21 13.54L182.21 13.82L183.39 13.82L189.32 13.82L189.32 13.22L189.32 11.76L188.97 11.76C188.78 11.76 188.69 11.89 188.68 12.11C188.68 12.14 188.66 12.19 188.66 12.29C188.66 12.39 188.66 12.53 188.65 12.74C188.64 12.95 188.62 13.09 188.62 13.22L184.10 13.22L184.10 9.09L188.05 9.09L188.05 8.51L184.10 8.51L184.10 4.51L188.62 4.51C188.65 5.12 188.68 5.50 188.68 5.63C188.69 5.85 188.78 5.96 188.97 5.96L189.32 5.96L189.32 4.51L189.32 3.92ZM206.81 3.92L206.25 3.92L206.22 3.92L204.75 3.92L204.75 4.19C204.75 4.34 204.83 4.42 205.02 4.44L205.14 4.44C205.20 4.44 205.28 4.45 205.41 4.45C205.53 4.45 205.67 4.47 205.83 4.47L202.62 12.32C202.54 12.53 202.47 12.75 202.41 13.01C202.36 12.77 202.29 12.53 202.20 12.32L198.97 4.47C199.12 4.47 199.28 4.45 199.40 4.45C199.53 4.45 199.61 4.44 199.67 4.44L199.78 4.44C199.96 4.42 200.06 4.34 200.06 4.19L200.06 3.92L198.56 3.92L198.00 3.92L197.40 3.92L197.40 4.19C197.40 4.34 197.50 4.42 197.68 4.44L197.78 4.44C197.82 4.44 197.89 4.45 197.96 4.45C198.03 4.45 198.13 4.47 198.23 4.47L202.09 13.82L202.72 13.82L206.58 4.47C206.68 4.47 206.78 4.45 206.85 4.45C206.92 4.45 206.99 4.44 207.03 4.44L207.12 4.44C207.30 4.42 207.40 4.34 207.40 4.19L207.40 3.92ZM216.64 3.92L215.45 3.92L215.45 4.19C215.45 4.34 215.54 4.42 215.73 4.44L215.87 4.44C215.94 4.44 216.03 4.45 216.17 4.45C216.31 4.45 216.47 4.47 216.64 4.47L216.64 13.26C216.47 13.26 216.31 13.27 216.17 13.27C216.03 13.27 215.94 13.29 215.87 13.29L215.73 13.29C215.54 13.30 215.46 13.38 215.46 13.54L215.46 13.82L216.64 13.82L222.57 13.82L222.57 13.22L222.57 11.76L222.22 11.76C222.03 11.76 221.94 11.89 221.93 12.11C221.93 12.14 221.91 12.19 221.91 12.29C221.91 12.39 221.91 12.53 221.90 12.74C221.89 12.95 221.87 13.09 221.87 13.22L217.35 13.22L217.35 9.09L221.30 9.09L221.30 8.51L217.35 8.51L217.35 4.51L221.87 4.51C221.90 5.12 221.93 5.50 221.93 5.63C221.94 5.85 222.03 5.96 222.22 5.96L222.57 5.96L222.57 4.51L222.57 3.92ZM237.52 11.97C237.33 11.97 237.24 12.08 237.23 12.31C237.23 12.32 237.23 12.38 237.22 12.43C237.20 12.49 237.20 12.59 237.19 12.71C237.17 12.84 237.16 13.01 237.15 13.20L233.06 13.20L233.06 4.47C233.23 4.47 233.37 4.45 233.51 4.45C233.65 4.45 233.76 4.44 233.83 4.44L233.95 4.44C234.14 4.42 234.23 4.34 234.23 4.19L234.23 3.92L233.06 3.92L232.34 3.92L231.15 3.92L231.15 4.19C231.15 4.34 231.25 4.42 231.43 4.44L231.57 4.44C231.64 4.44 231.74 4.45 231.88 4.45C232.02 4.45 232.18 4.47 232.34 4.47L232.34 13.26C232.18 13.26 232.02 13.27 231.88 13.27C231.74 13.27 231.64 13.29 231.57 13.29L231.43 13.29C231.25 13.30 231.15 13.38 231.15 13.54L231.15 13.82L232.34 13.82L237.62 13.82L237.75 13.82L237.87 13.82L237.87 13.55L237.87 12.99L237.87 11.97L237.59 11.97ZM255.01 8.86C255.01 8.11 254.88 7.41 254.66 6.79C254.44 6.17 254.11 5.64 253.69 5.19C253.27 4.75 252.78 4.40 252.21 4.16C251.64 3.92 250.98 3.79 250.28 3.79C249.58 3.79 248.95 3.92 248.37 4.16C247.80 4.40 247.30 4.75 246.88 5.19C246.46 5.64 246.13 6.17 245.91 6.79C245.69 7.41 245.56 8.11 245.56 8.86C245.56 9.63 245.69 10.33 245.91 10.95C246.13 11.56 246.46 12.10 246.88 12.54C247.30 12.99 247.80 13.33 248.37 13.57C248.95 13.80 249.58 13.93 250.28 13.93C250.98 13.93 251.64 13.80 252.21 13.57C252.78 13.33 253.27 12.99 253.69 12.54C254.11 12.10 254.44 11.56 254.66 10.95C254.88 10.33 255.01 9.63 255.01 8.86ZM254.25 8.86C254.25 9.56 254.17 10.18 253.97 10.72C253.78 11.27 253.51 11.75 253.16 12.12C252.81 12.50 252.39 12.81 251.90 13.01C251.41 13.20 250.88 13.30 250.28 13.30C249.69 13.30 249.16 13.20 248.67 13.01C248.18 12.81 247.76 12.50 247.41 12.12C247.06 11.75 246.78 11.27 246.58 10.72C246.39 10.18 246.30 9.56 246.30 8.86C246.30 8.18 246.39 7.55 246.58 7.00C246.78 6.45 247.06 5.98 247.41 5.60C247.76 5.22 248.18 4.91 248.67 4.72C249.16 4.52 249.69 4.41 250.28 4.41C250.88 4.41 251.41 4.52 251.90 4.72C252.39 4.91 252.81 5.22 253.16 5.60C253.51 5.98 253.78 6.45 253.97 7.00C254.17 7.55 254.25 8.18 254.25 8.86ZM269.51 4.68C268.93 4.17 268.04 3.92 266.88 3.92L264.47 3.92L263.28 3.92L263.28 4.19C263.28 4.34 263.38 4.42 263.56 4.44L263.70 4.44C263.77 4.44 263.87 4.45 264.01 4.45C264.15 4.45 264.31 4.47 264.47 4.47L264.47 13.26C264.31 13.26 264.15 13.27 264.01 13.27C263.87 13.27 263.77 13.29 263.70 13.29L263.56 13.29C263.38 13.30 263.28 13.38 263.28 13.54L263.28 13.82L264.47 13.82L265.19 13.82L266.36 13.82L266.36 13.54C266.36 13.38 266.27 13.30 266.08 13.29L265.96 13.29C265.89 13.29 265.78 13.27 265.64 13.27C265.50 13.27 265.36 13.26 265.19 13.26L265.19 9.83L266.88 9.83C267.43 9.83 267.92 9.74 268.35 9.60C268.79 9.45 269.15 9.25 269.46 8.99C269.77 8.72 270.00 8.41 270.16 8.05C270.33 7.69 270.40 7.29 270.40 6.86C270.40 5.92 270.10 5.18 269.51 4.68ZM269.49 7.81C269.36 8.11 269.18 8.36 268.94 8.57C268.70 8.78 268.41 8.95 268.06 9.07C267.71 9.20 267.32 9.25 266.88 9.25L265.19 9.25L265.19 4.48L266.88 4.48C267.81 4.48 268.51 4.69 268.98 5.10C269.44 5.50 269.68 6.09 269.68 6.85C269.68 7.20 269.61 7.52 269.49 7.81ZM279.78 3.92L278.59 3.92L278.59 4.19C278.59 4.34 278.68 4.42 278.87 4.44L279.01 4.44C279.08 4.44 279.17 4.45 279.31 4.45C279.45 4.45 279.61 4.47 279.78 4.47L279.78 13.26C279.61 13.26 279.45 13.27 279.31 13.27C279.17 13.27 279.08 13.29 279.01 13.29L278.87 13.29C278.68 13.30 278.60 13.38 278.60 13.54L278.60 13.82L279.78 13.82L285.71 13.82L285.71 13.22L285.71 11.76L285.36 11.76C285.17 11.76 285.08 11.89 285.07 12.11C285.07 12.14 285.05 12.19 285.05 12.29C285.05 12.39 285.05 12.53 285.04 12.74C285.03 12.95 285.01 13.09 285.01 13.22L280.49 13.22L280.49 9.09L284.44 9.09L284.44 8.51L280.49 8.51L280.49 4.51L285.01 4.51C285.04 5.12 285.07 5.50 285.07 5.63C285.08 5.85 285.17 5.96 285.36 5.96L285.71 5.96L285.71 4.51L285.71 3.92ZM302.29 13.29L302.19 13.29L302.01 13.29C301.92 13.29 301.84 13.27 301.76 13.27L298.79 9.53C298.70 9.42 298.59 9.32 298.48 9.25C298.91 9.21 299.31 9.11 299.66 8.96C300.01 8.81 300.29 8.61 300.54 8.37C300.78 8.13 300.97 7.85 301.10 7.55C301.22 7.24 301.29 6.89 301.29 6.51C301.29 5.66 301.01 5.03 300.45 4.58C299.89 4.14 299.04 3.92 297.89 3.92L295.48 3.92L294.31 3.92L294.31 4.19C294.31 4.34 294.39 4.42 294.57 4.44L294.71 4.44C294.78 4.44 294.88 4.45 295.02 4.45C295.16 4.45 295.32 4.47 295.48 4.47L295.48 13.26C295.32 13.26 295.16 13.27 295.02 13.27C294.88 13.27 294.78 13.29 294.71 13.29L294.57 13.29C294.39 13.30 294.29 13.38 294.29 13.54L294.29 13.82L295.48 13.82L296.20 13.82L297.37 13.82L297.37 13.54C297.37 13.38 297.28 13.30 297.09 13.29L296.95 13.29C296.88 13.29 296.79 13.27 296.65 13.27C296.51 13.27 296.37 13.26 296.20 13.26L296.20 9.34L297.37 9.34C297.57 9.34 297.71 9.35 297.79 9.39C297.88 9.44 297.96 9.52 298.05 9.62L301.22 13.64C301.28 13.71 301.32 13.75 301.38 13.78C301.43 13.80 301.50 13.82 301.57 13.82L301.64 13.82L302.19 13.82L302.55 13.82L302.55 13.54C302.55 13.38 302.47 13.30 302.29 13.29ZM297.79 8.81L296.20 8.81L296.20 4.48L297.89 4.48C298.77 4.48 299.45 4.66 299.91 5.00C300.37 5.33 300.59 5.87 300.59 6.57C300.59 6.92 300.54 7.21 300.41 7.49C300.29 7.77 300.09 7.99 299.85 8.19C299.61 8.39 299.32 8.55 298.97 8.65C298.62 8.75 298.23 8.81 297.79 8.81Z"></path></g></svg>